#!OML:ASF H:\Punching\Project 1\Capture day 1\Session 1\female.ASF
:FULLY-SPECIFIED
:DEGREES
2952
root 0.184771 14.1249 1.4031 13.5057 -9.32184 -3.6027
lowerback -8.11391 5.92014 4.14785
upperback -9.18303 7.62161 -2.8069
thorax -4.17289 3.51793 -4.84462
lowerneck -15.2086 1.76112 8.61263
upperneck 32.9578 1.18034 -3.34667
head 13.819 1.16577 -2.64894
rclavicle 3.60794e-014 3.18055e-015
rhumerus 0.755033 15.9312 -71.4519
rradius 127.021
rwrist -9.8966
rhand -34.5846 11.1589
rfingers 7.12502
rthumb -7.74388 -18.6793
lclavicle 3.60794e-014 3.18055e-015
lhumerus -7.197 -6.95361 46.4696
lradius 137.575
lwrist 1.00341
lhand -30.182 4.09858
lfingers 7.12502
lthumb -3.49319 34.0497
rfemur 9.04575 0.173985 20.9833
rtibia 36.075
rfoot -18.08 -36.2262
rtoes -11.3113
lfemur -57.4548 -1.9638 -16.1061
ltibia 59.9105
lfoot -12.3595 10.1067
ltoes 3.23487
2953
root 0.227988 14.1654 1.5383 12.7655 -8.83136 -3.33979
lowerback -7.80857 5.87185 3.61831
upperback -9.1568 7.59242 -2.79864
thorax -4.37803 3.52636 -4.58178
lowerneck -15.0713 1.50667 8.61145
upperneck 33.4555 0.613718 -2.75507
head 13.9698 1.01644 -2.50971
rclavicle -2.90226e-014 2.54444e-014
rhumerus -0.271638 15.1376 -71.1539
rradius 127.185
rwrist -9.9575
rhand -34.5648 10.9958
rfingers 7.12502
rthumb -7.72471 -18.8431
lclavicle -2.90226e-014 2.54444e-014
lhumerus -6.5332 -7.76172 47.2335
lradius 137.288
lwrist 0.602633
lhand -30.1912 3.91648
lfingers 7.12502
lthumb -3.50206 33.8675
rfemur 7.77147 -0.525012 20.3305
rtibia 39.729
rfoot -13.9777 -35.4314
rtoes -6.6276
lfemur -55.909 -2.35489 -16.8179
ltibia 59.4727
lfoot -12.8268 9.98689
ltoes 3.403
2954
root 0.269063 14.2089 1.6662 11.9921 -8.34254 -2.99053
lowerback -7.43401 5.77883 2.97552
upperback -9.11559 7.50541 -2.802
thorax -4.62334 3.51128 -4.2797
lowerneck -14.9404 1.28987 8.64802
upperneck 33.9822 0.0745023 -2.1386
head 14.1457 0.89062 -2.36109
rclavicle 7.31528e-014 -6.36111e-015
rhumerus -1.26664 14.3814 -70.9003
rradius 127.363
rwrist -9.99446
rhand -34.5382 10.8615
rfingers 7.12502
rthumb -7.69904 -18.9784
lclavicle 7.31528e-014 -6.36111e-015
lhumerus -5.82954 -8.59241 48.0061
lradius 137.048
lwrist 0.26853
lhand -30.2299 3.80346
lfingers 7.12502
lthumb -3.53952 33.7538
rfemur 6.26462 -1.235 19.5859
rtibia 43.6451
rfoot -10.0797 -33.9112
rtoes -2.40675
lfemur -54.2904 -2.78868 -17.586
ltibia 58.9047
lfoot -13.2087 9.89412
ltoes 3.64044
2955
root 0.307849 14.2526 1.78612 11.2148 -7.85184 -2.56901
lowerback -7.03107 5.64386 2.2289
upperback -9.05234 7.36032 -2.80756
thorax -4.87764 3.47372 -3.92723
lowerneck -14.8185 1.11275 8.71106
upperneck 34.5184 -0.429109 -1.50465
head 14.3394 0.789114 -2.20206
rclavicle 2.18663e-015 -2.62396e-014
rhumerus -2.19496 13.6705 -70.6732
rradius 127.55
rwrist -9.99704
rhand -34.5169 10.7503
rfingers 7.12502
rthumb -7.67847 -19.0903
lclavicle 2.18663e-015 -2.62396e-014
lhumerus -5.08715 -9.43445 48.793
lradius 136.85
lwrist 0.000552249
lhand -30.2842 3.76845
lfingers 7.12502
lthumb -3.59189 33.7179
rfemur 4.53855 -1.91144 18.7767
rtibia 47.76
rfoot -6.9276 -31.6402
rtoes 0.451369
lfemur -52.6592 -3.2633 -18.3977
ltibia 58.2516
lfoot -13.5005 9.83159
ltoes 3.88489
2956
root 0.344143 14.2945 1.89823 10.4629 -7.35258 -2.11998
lowerback -6.63081 5.47304 1.41983
upperback -8.97142 7.16231 -2.80128
thorax -5.12309 3.41503 -3.52746
lowerneck -14.7026 0.975407 8.81105
upperneck 35.0546 -0.891495 -0.876631
head 14.546 0.712266 -2.04261
rclavicle -3.37934e-014 4.77083e-015
rhumerus -3.05649 13.009 -70.4694
rradius 127.74
rwrist -9.96257
rhand -34.4951 10.7024
rfingers 7.12502
rthumb -7.65744 -19.139
lclavicle -3.37934e-014 4.77083e-015
lhumerus -4.32086 -10.3027 49.6095
lradius 136.684
lwrist -0.224883
lhand -30.3654 3.78158
lfingers 7.12502
lthumb -3.67032 33.7297
rfemur 2.61431 -2.53417 17.9519
rtibia 51.9978
rfoot -4.87091 -28.7466
rtoes 1.72045
lfemur -51.07 -3.7728 -19.2054
ltibia 57.5582
lfoot -13.7084 9.79564
ltoes 4.12215
2957
root 0.377931 14.3337 2.00318 9.75172 -6.83975 -1.69861
lowerback -6.25633 5.27221 0.602698
upperback -8.86975 6.9182 -2.76557
thorax -5.33661 3.33659 -3.08741
lowerneck -14.5867 0.873274 8.94093
upperneck 35.5777 -1.31444 -0.258849
head 14.7573 0.657153 -1.88314
rclavicle -9.91935e-014 -7.15625e-015
rhumerus -3.84333 12.4006 -70.278
rradius 127.933
rwrist -9.90756
rhand -34.4699 10.6669
rfingers 7.12502
rthumb -7.6331 -19.1753
lclavicle -9.91935e-014 -7.15625e-015
lhumerus -3.54336 -11.2081 50.4646
lradius 136.542
lwrist -0.436678
lhand -30.4744 3.8353
lfingers 7.12502
lthumb -3.77559 33.7816
rfemur 0.506091 -3.10924 17.1703
rtibia 56.2883
rfoot -3.84284 -25.4526
rtoes 1.70884
lfemur -49.5468 -4.30515 -19.953
ltibia 56.8561
lfoot -13.8467 9.77807
ltoes 4.3334
2958
root 0.409321 14.3712 2.10233 9.0809 -6.32304 -1.33934
lowerback -5.92156 5.0486 -0.187713
upperback -8.74182 6.63873 -2.68914
thorax -5.4989 3.24209 -2.61131
lowerneck -14.4718 0.803891 9.09514
upperneck 36.0863 -1.69842 0.346175
head 14.972 0.62217 -1.72369
rclavicle 1.12512e-013 1.27222e-014
rhumerus -4.55486 11.8472 -70.0962
rradius 128.123
rwrist -9.84742
rhand -34.4492 10.681
rfingers 7.12502
rthumb -7.61317 -19.162
lclavicle 1.12512e-013 1.27222e-014
lhumerus -2.7637 -12.1566 51.363
lradius 136.412
lwrist -0.650614
lhand -30.6052 3.92894
lfingers 7.12502
lthumb -3.90188 33.873
rfemur -1.77224 -3.66098 16.4598
rtibia 60.5736
rfoot -3.63735 -21.9535
rtoes 0.765329
lfemur -48.0784 -4.84273 -20.609
ltibia 56.157
lfoot -13.9315 9.77308
ltoes 4.52164
2959
root 0.438357 14.4092 2.19625 8.44085 -5.81739 -1.06338
lowerback -5.61059 4.80768 -0.932733
upperback -8.59155 6.33283 -2.5639
thorax -5.61957 3.1344 -2.1024
lowerneck -14.3443 0.763374 9.27429
upperneck 36.5793 -2.04448 0.931757
head 15.1855 0.60555 -1.56717
rclavicle 8.17005e-014 -1.03368e-014
rhumerus -5.20201 11.3559 -69.9202
rradius 128.314
rwrist -9.80552
rhand -34.4175 10.7056
rfingers 7.12502
rthumb -7.58253 -19.1385
lclavicle 8.17005e-014 -1.03368e-014
lhumerus -2.00347 -13.1611 52.3078
lradius 136.287
lwrist -0.867667
lhand -30.7565 4.03873
lfingers 7.12502
lthumb -4.04805 33.98
rfemur -4.214 -4.21759 15.8383
rtibia 64.8181
rfoot -3.97388 -18.4886
rtoes -0.534739
lfemur -46.6421 -5.36394 -21.1561
ltibia 55.4561
lfoot -13.983 9.77413
ltoes 4.69543
2960
root 0.465637 14.4495 2.28522 7.82338 -5.34708 -0.88584
lowerback -5.30953 4.561 -1.60791
upperback -8.42244 6.01662 -2.39089
thorax -5.7056 3.01955 -1.57644
lowerneck -14.208 0.748522 9.48408
upperneck 37.0616 -2.35716 1.49275
head 15.4 0.605373 -1.41754
rclavicle 6.61953e-014 2.14687e-014
rhumerus -5.79128 10.9248 -69.7546
rradius 128.505
rwrist -9.79505
rhand -34.3662 10.7033
rfingers 7.12502
rthumb -7.53299 -19.1426
lclavicle 6.61953e-014 2.14687e-014
lhumerus -1.27595 -14.2209 53.2841
lradius 136.172
lwrist -1.0596
lhand -30.9126 4.15697
lfingers 7.12502
lthumb -4.19872 34.0953
rfemur -6.81537 -4.80768 15.3144
rtibia 68.9782
rfoot -4.62175 -15.2138
rtoes -1.82363
lfemur -45.2081 -5.847 -21.5833
ltibia 54.7082
lfoot -13.9897 9.78561
ltoes 4.87621
2961
root 0.491767 14.4926 2.36952 7.21887 -4.93139 -0.81287
lowerback -5.01358 4.31745 -2.19637
upperback -8.23347 5.7027 -2.17232
thorax -5.75602 2.90231 -1.04547
lowerneck -14.0577 0.755139 9.71441
upperneck 37.5368 -2.63954 2.03241
head 15.6153 0.619236 -1.27218
rclavicle -2.04748e-014 1.59028e-015
rhumerus -6.32924 10.5515 -69.6002
rradius 128.689
rwrist -9.82449
rhand -34.3117 10.7164
rfingers 7.12502
rthumb -7.48045 -19.1314
lclavicle -2.04748e-014 1.59028e-015
lhumerus -0.583058 -15.3382 54.2864
lradius 136.053
lwrist -1.23288
lhand -31.1248 4.21173
lfingers 7.12502
lthumb -4.4036 34.146
rfemur -9.58564 -5.44724 14.8939
rtibia 73.0756
rfoot -5.39014 -12.3153
rtoes -2.85669
lfemur -43.7749 -6.27611 -21.8887
ltibia 53.9419
lfoot -13.9761 9.81285
ltoes 5.05229
2962
root 0.518282 14.5525 2.4519 6.63037 -4.58254 -0.865748
lowerback -4.71345 4.08035 -2.66653
upperback -8.03257 5.39593 -1.90298
thorax -5.78222 2.78316 -0.523073
lowerneck -13.8802 0.781378 9.97711
upperneck 37.9976 -2.88888 2.53484
head 15.8236 0.646831 -1.13956
rclavicle -1.51076e-014 8.74653e-015
rhumerus -6.81265 10.2452 -69.4579
rradius 128.861
rwrist -9.89328
rhand -34.2474 10.7606
rfingers 7.12502
rthumb -7.4184 -19.0894
lclavicle -1.51076e-014 8.74653e-015
lhumerus 0.054253 -16.4824 55.303
lradius 135.957
lwrist -1.32136
lhand -31.2987 4.18058
lfingers 7.12502
lthumb -4.57153 34.1113
rfemur -12.4906 -6.13634 14.6072
rtibia 77.0328
rfoot -6.10845 -9.95155
rtoes -3.55727
lfemur -42.2801 -6.63711 -22.0535
ltibia 53.1125
lfoot -13.9789 9.85264
ltoes 5.26497
2963
root 0.544603 14.6034 2.52778 6.05484 -4.30517 -1.05479
lowerback -4.41487 3.8588 -2.98408
upperback -7.82253 5.10894 -1.59239
thorax -5.78086 2.666 -0.0381474
lowerneck -13.6793 0.822349 10.2575
upperneck 38.456 -3.11464 3.0169
head 16.0314 0.684945 -1.01159
rclavicle -4.75095e-014 2.38542e-015
rhumerus -7.2493 9.99344 -69.3324
rradius 129.02
rwrist -9.99084
rhand -34.1655 10.7868
rfingers 7.12502
rthumb -7.33935 -19.0659
lclavicle -4.75095e-014 2.38542e-015
lhumerus 0.648002 -17.6549 56.3278
lradius 135.868
lwrist -1.34273
lhand -31.4388 4.01062
lfingers 7.12502
lthumb -4.70682 33.9383
rfemur -15.5836 -6.86903 14.4689
rtibia 80.9581
rfoot -6.77247 -8.20927
rtoes -4.06671
lfemur -40.8605 -6.92001 -22.0689
ltibia 52.3213
lfoot -13.9587 9.8994
ltoes 5.48376
2964
root 0.571705 14.6566 2.59989 5.4948 -4.09819 -1.38318
lowerback -4.12245 3.65164 -3.1366
upperback -7.60467 4.84133 -1.24151
thorax -5.7513 2.54993 0.400973
lowerneck -13.46 0.878526 10.5679
upperneck 38.9153 -3.31255 3.45917
head 16.2407 0.734456 -0.89819
rclavicle -8.18993e-014 1.11319e-014
rhumerus -7.64096 9.79484 -69.2278
rradius 129.155
rwrist -10.0893
rhand -34.0739 10.846
rfingers 7.12502
rthumb -7.2509 -19.0098
lclavicle -8.18993e-014 1.11319e-014
lhumerus 1.19888 -18.8257 57.3582
lradius 135.785
lwrist -1.29824
lhand -31.4566 3.75003
lfingers 7.12502
lthumb -4.72404 33.6774
rfemur -18.8219 -7.64088 14.4955
rtibia 84.7762
rfoot -7.37167 -7.05763
rtoes -4.55344
lfemur -39.4557 -7.12276 -21.9341
ltibia 51.5252
lfoot -13.9368 9.94657
ltoes 5.71292
2965
root 0.599664 14.7122 2.66862 4.94167 -3.95565 -1.82773
lowerback -3.82975 3.45556 -3.14109
upperback -7.37282 4.58918 -0.860053
thorax -5.69312 2.43362 0.792555
lowerneck -13.2382 0.947909 10.9048
upperneck 39.3756 -3.48641 3.86118
head 16.4548 0.793362 -0.799943
rclavicle 7.4743e-014 -4.77083e-015
rhumerus -7.96778 9.64497 -69.1425
rradius 129.266
rwrist -10.1721
rhand -33.9616 10.8735
rfingers 7.12502
rthumb -7.14247 -18.986
lclavicle 7.4743e-014 -4.77083e-015
lhumerus 1.71547 -19.9689 58.3788
lradius 135.706
lwrist -1.20663
lhand -31.3228 3.43233
lfingers 7.12502
lthumb -4.59483 33.3625
rfemur -22.1843 -8.44888 14.6699
rtibia 88.486
rfoot -7.91356 -6.36517
rtoes -5.00099
lfemur -38.067 -7.25076 -21.6754
ltibia 50.7554
lfoot -13.9397 9.99048
ltoes 5.95811
